<svg width="19" height="20" viewBox="0 0 19 20" fill="none" xmlns="http://www.w3.org/2000/svg">
<path d="M9.48354 0.483643C4.48448 0.483643 0.38916 4.33824 0 9.23684L5.1006 11.3457C5.53278 11.0501 6.05489 10.8769 6.61658 10.8769C6.66692 10.8769 6.71704 10.8791 6.76674 10.8815L9.03501 7.59372C9.03501 7.57801 9.03501 7.56274 9.03501 7.54725C9.03501 5.56832 10.6448 3.95833 12.6239 3.95833C14.6029 3.95833 16.2126 5.56832 16.2126 7.54725C16.2126 9.52618 14.6029 11.1364 12.6239 11.1364C12.5966 11.1364 12.5695 11.1364 12.5424 11.1342L9.30736 13.4425C9.30951 13.4845 9.31058 13.5273 9.31058 13.5699C9.31058 15.0555 8.10223 16.2637 6.6168 16.2637C5.31293 16.2637 4.22268 15.333 3.97571 14.1006L0.32785 12.5934C1.45725 16.5879 5.12706 19.5163 9.48354 19.5163C14.7395 19.5163 19 15.2556 19 10.0003C19 4.74418 14.7392 0.483643 9.48354 0.483643Z" fill="black"/>
<path d="M5.96391 14.9232L4.79492 14.4403C5.00209 14.8716 5.36048 15.2328 5.83634 15.4311C6.86506 15.8597 8.05104 15.3716 8.47979 14.342C8.68738 13.8442 8.68867 13.2945 8.4828 12.7954C8.27736 12.2961 7.8897 11.9068 7.39126 11.699C6.89669 11.4931 6.36684 11.5006 5.90131 11.6764L7.1088 12.1757C7.86754 12.4919 8.22637 13.3632 7.91014 14.1219C7.59455 14.8809 6.72265 15.2397 5.96391 14.9232Z" fill="black"/>
<path d="M15.0151 7.54727C15.0151 6.22877 13.9425 5.15594 12.6237 5.15594C11.3052 5.15594 10.2324 6.22877 10.2324 7.54727C10.2324 8.86598 11.3052 9.93837 12.6237 9.93837C13.9425 9.93837 15.0151 8.86576 15.0151 7.54727ZM10.8313 7.54318C10.8313 6.55103 11.6357 5.74689 12.6278 5.74689C13.62 5.74689 14.4243 6.55103 14.4243 7.54318C14.4243 8.53533 13.62 9.33947 12.6278 9.33947C11.6357 9.33947 10.8313 8.53512 10.8313 7.54318Z" fill="black"/>
</svg>
