<svg width="1061" height="200" viewBox="0 0 1061 200" fill="none" xmlns="http://www.w3.org/2000/svg">
<path d="M130 200L0 70H130V200Z" fill="#2BD8B7"/>
<path d="M0 0L50 50H150V150L200 200V0H0Z" fill="#2BD8B7"/>
<path d="M474.7 55.2V144.3L441.6 177.4H299.3V22H441.5L474.7 55.2ZM427.6 75.2L416.8 64.3H346.5V135.2H416.8L427.6 124.3V75.2Z" fill="white"/>
<path d="M668.5 177.7H616.1L572.6 87.3999L529 177.7H476.6L551.6 22.2H593.4L668.5 177.7Z" fill="white"/>
<path d="M743.6 64.5L728.6 79.2H857.3V138.5L817.3 177.9H679.3V135.6H793L808 120.9H679.3V61.6L719.1 22.4H857.3V64.5H743.6Z" fill="white"/>
<path d="M925.9 76.2999H878.8V22.2999H925.9V76.2999ZM1060.8 22.2V177.7H1013.7V123.4H945.5L925.9 143.1V177.7H878.9V123.4L925.9 76.2999L1013.7 76.2V22.2999H1060.8V22.2Z" fill="white"/>
</svg>
